# xmcd CD database file
#
# Track frame offsets:
#	150
#	27057
#	44422
#
# Disc length: 947 seconds
#
# Revision: 0
# Processed by: cddbd v1.5.1PL0 Copyright (c) Steve Scherf et al.
# Submitted via: CDex 1.51
#
DISCID=1b03b103
DTITLE=鈴木　雅之 - 君を抱いて眠りたい
DYEAR=2004
DGENRE=Soul
TTITLE0=君を抱いて眠りたい
TTITLE1=The Other End of Time
TTITLE2=君を抱いて眠りたい　 (Instrumental)
EXTD=YEAR: 2004
EXTT0=
EXTT1=
EXTT2=
PLAYORDER=
